<svg width="25" height="24" viewBox="0 0 25 24" fill="none" xmlns="http://www.w3.org/2000/svg">
<mask id="mask0_133_755" style="mask-type:alpha" maskUnits="userSpaceOnUse" x="0" y="0" width="25" height="24">
<rect x="0.5" width="24" height="24" fill="#D9D9D9"/>
</mask>
<g mask="url(#mask0_133_755)">
<path d="M12.5 19.55C12.3167 19.55 12.1375 19.525 11.9625 19.475C11.7875 19.425 11.625 19.3583 11.475 19.275C10.7917 18.8583 10.075 18.5417 9.325 18.325C8.575 18.1083 7.8 18 7 18C6.3 18 5.6125 18.0917 4.9375 18.275C4.2625 18.4583 3.61667 18.7167 3 19.05C2.65 19.2333 2.3125 19.225 1.9875 19.025C1.6625 18.825 1.5 18.5333 1.5 18.15V6.09999C1.5 5.91665 1.54583 5.74165 1.6375 5.57499C1.72917 5.40832 1.86667 5.28332 2.05 5.19999C2.81667 4.79999 3.61667 4.49999 4.45 4.29999C5.28333 4.09999 6.13333 3.99999 7 3.99999C7.96667 3.99999 8.9125 4.12499 9.8375 4.37499C10.7625 4.62499 11.65 4.99999 12.5 5.49999V17.6C13.35 17.0667 14.2417 16.6667 15.175 16.4C16.1083 16.1333 17.05 16 18 16C18.6 16 19.1875 16.05 19.7625 16.15C20.3375 16.25 20.9167 16.4 21.5 16.6V4.59999C21.75 4.68332 21.9958 4.77082 22.2375 4.86249C22.4792 4.95415 22.7167 5.06665 22.95 5.19999C23.1333 5.28332 23.2708 5.40832 23.3625 5.57499C23.4542 5.74165 23.5 5.91665 23.5 6.09999V18.15C23.5 18.5333 23.3375 18.825 23.0125 19.025C22.6875 19.225 22.35 19.2333 22 19.05C21.3833 18.7167 20.7375 18.4583 20.0625 18.275C19.3875 18.0917 18.7 18 18 18C17.2 18 16.425 18.1083 15.675 18.325C14.925 18.5417 14.2083 18.8583 13.525 19.275C13.375 19.3583 13.2125 19.425 13.0375 19.475C12.8625 19.525 12.6833 19.55 12.5 19.55ZM15.325 14.25C15.1583 14.4 14.9792 14.4292 14.7875 14.3375C14.5958 14.2458 14.5 14.0917 14.5 13.875V5.69999C14.5 5.63332 14.5125 5.57082 14.5375 5.51249C14.5625 5.45415 14.6 5.39999 14.65 5.34999L18.65 1.34999C18.8167 1.18332 19 1.14165 19.2 1.22499C19.4 1.30832 19.5 1.46665 19.5 1.69999V10.275C19.5 10.3583 19.4833 10.4292 19.45 10.4875C19.4167 10.5458 19.375 10.6 19.325 10.65L15.325 14.25ZM10.5 16.625V6.72499C9.95 6.49165 9.37917 6.31249 8.7875 6.18749C8.19583 6.06249 7.6 5.99999 7 5.99999C6.38333 5.99999 5.78333 6.05832 5.2 6.17499C4.61667 6.29165 4.05 6.46665 3.5 6.69999V16.625C4.08333 16.4083 4.6625 16.25 5.2375 16.15C5.8125 16.05 6.4 16 7 16C7.6 16 8.1875 16.05 8.7625 16.15C9.3375 16.25 9.91667 16.4083 10.5 16.625Z" fill="#4D4D4D"/>
</g>
</svg>
