<svg width="32" height="32" viewBox="0 0 32 32" fill="none" xmlns="http://www.w3.org/2000/svg">
<g clip-path="url(#clip0_133_703)">
<path fill-rule="evenodd" clip-rule="evenodd" d="M5.33317 15.9998C5.33336 13.9471 5.92585 11.938 7.03955 10.2137C8.15325 8.48933 9.74085 7.12296 11.6118 6.27852C13.4828 5.43408 15.5578 5.14744 17.5876 5.453C19.6175 5.75856 21.5161 6.64333 23.0555 8.00116C24.595 9.35899 25.71 11.1322 26.2667 13.108C26.8234 15.0838 26.7982 17.1782 26.1941 19.1401C25.59 21.1019 24.4326 22.8477 22.8609 24.1681C21.2891 25.4884 19.3698 26.3272 17.3332 26.5838V18.6665H19.9998C20.3535 18.6665 20.6926 18.526 20.9426 18.276C21.1927 18.0259 21.3332 17.6868 21.3332 17.3332C21.3332 16.9795 21.1927 16.6404 20.9426 16.3904C20.6926 16.1403 20.3535 15.9998 19.9998 15.9998H17.3332V13.3332C17.3332 12.9795 17.4736 12.6404 17.7237 12.3904C17.9737 12.1403 18.3129 11.9998 18.6665 11.9998H19.3332C19.6868 11.9998 20.0259 11.8594 20.276 11.6093C20.526 11.3593 20.6665 11.0201 20.6665 10.6665C20.6665 10.3129 20.526 9.97374 20.276 9.72369C20.0259 9.47365 19.6868 9.33317 19.3332 9.33317H18.6665C17.6056 9.33317 16.5882 9.7546 15.8381 10.5047C15.0879 11.2549 14.6665 12.2723 14.6665 13.3332V15.9998H11.9998C11.6462 15.9998 11.3071 16.1403 11.057 16.3904C10.807 16.6404 10.6665 16.9795 10.6665 17.3332C10.6665 17.6868 10.807 18.0259 11.057 18.276C11.3071 18.526 11.6462 18.6665 11.9998 18.6665H14.6665V26.5838C12.0888 26.2588 9.71826 25.0042 7.99984 23.0555C6.28142 21.1068 5.33321 18.598 5.33317 15.9998ZM15.9998 29.3332C23.3638 29.3332 29.3332 23.3638 29.3332 15.9998C29.3332 8.63584 23.3638 2.6665 15.9998 2.6665C8.63584 2.6665 2.6665 8.63584 2.6665 15.9998C2.6665 23.3638 8.63584 29.3332 15.9998 29.3332Z" fill="#4D4D4D"/>
</g>
<defs>
<clipPath id="clip0_133_703">
<rect width="32" height="32" fill="white"/>
</clipPath>
</defs>
</svg>
