<svg width="48" height="48" viewBox="0 0 48 48" fill="none" xmlns="http://www.w3.org/2000/svg">
<path d="M45.2086 33.0423L39.2384 27.0722C40.3929 24.7756 41.0441 22.1845 41.0441 19.4437C41.0441 10.0458 33.3983 2.40002 24.0003 2.40002C14.6024 2.40002 6.95663 10.0458 6.95663 19.4437C6.95663 22.1845 7.60792 24.7756 8.76225 27.0722L2.79214 33.0423C2.4786 33.3558 2.35204 33.8105 2.45835 34.2408C2.56475 34.6712 2.8885 35.0145 3.31189 35.146L10.6101 37.4113L12.8754 44.7095C13.0068 45.1329 13.3502 45.4567 13.7806 45.5631C13.8811 45.5879 13.9829 45.6 14.0842 45.6C14.4158 45.6 14.7389 45.4695 14.9791 45.2293L23.7244 36.484C23.8163 36.4854 23.9081 36.4875 24.0004 36.4875C24.0927 36.4875 24.1845 36.4855 24.2765 36.484L33.0217 45.2292C33.2619 45.4694 33.5851 45.5999 33.9166 45.5999C34.0177 45.5999 34.1196 45.5878 34.2202 45.563C34.6506 45.4567 34.994 45.1328 35.1254 44.7094L37.3906 37.4112L44.6889 35.1459C45.1124 35.0144 45.436 34.6711 45.5424 34.2407C45.6487 33.8104 45.5221 33.3558 45.2086 33.0423ZM24.0003 4.93127C32.0025 4.93127 38.5128 11.4415 38.5128 19.4437C38.5128 27.4459 32.0025 33.9562 24.0003 33.9562C18.6869 33.9562 14.0321 31.0853 11.5033 26.8138C11.4622 26.7131 11.4066 26.6174 11.3385 26.5279C10.1608 24.4313 9.48787 22.0148 9.48787 19.4437C9.48787 11.4415 15.9982 4.93127 24.0003 4.93127ZM14.6714 41.9571L12.8302 36.0248C12.7066 35.6266 12.3948 35.3148 11.9966 35.1913L6.0642 33.35L10.1075 29.3067C12.5524 32.7405 16.2371 35.2327 20.5027 36.126L14.6714 41.9571ZM36.0042 35.1912C35.6059 35.3148 35.2942 35.6266 35.1706 36.0247L33.3293 41.9571L27.4981 36.1258C31.7636 35.2325 35.4484 32.7404 37.8933 29.3065L41.9366 33.3498L36.0042 35.1912Z" fill="#EBEBEB"/>
<path d="M24.0001 31.5937C30.6996 31.5937 36.1501 26.1433 36.1501 19.4437C36.1501 12.7442 30.6997 7.29376 24.0001 7.29376C17.3005 7.29376 11.8501 12.7442 11.8501 19.4437C11.8501 26.1433 17.3005 31.5937 24.0001 31.5937ZM24.0001 9.82501C29.3039 9.82501 33.6188 14.1399 33.6188 19.4437C33.6188 24.7475 29.3039 29.0625 24.0001 29.0625C18.6963 29.0625 14.3813 24.7475 14.3813 19.4437C14.3813 14.1399 18.6963 9.82501 24.0001 9.82501Z" fill="#EBEBEB"/>
<path d="M17.187 18.5542L19.2811 21.1923L19.1374 24.5574C19.1193 24.9812 19.3148 25.386 19.658 25.6353C20.0013 25.8847 20.4466 25.9455 20.844 25.7973L24.0001 24.6207L27.1561 25.7972C27.2995 25.8507 27.4492 25.877 27.598 25.877C27.8616 25.877 28.1227 25.7946 28.342 25.6352C28.6852 25.3859 28.8807 24.9811 28.8626 24.5573L28.7189 21.1922L30.8131 18.5542C31.0768 18.222 31.1566 17.7797 31.0255 17.3763C30.8945 16.9729 30.57 16.6619 30.1613 16.5481L26.9165 15.6448L25.0547 12.8379C24.8203 12.4844 24.4242 12.2719 24.0001 12.2719C23.5759 12.2719 23.1798 12.4844 22.9454 12.8379L21.0836 15.6448L17.8388 16.5481C17.4301 16.662 17.1057 16.9729 16.9746 17.3763C16.8435 17.7797 16.9232 18.222 17.187 18.5542ZM22.2169 17.9568C22.5101 17.8752 22.764 17.6907 22.9322 17.437L24.0001 15.8272L25.0679 17.4371C25.2361 17.6907 25.49 17.8752 25.7832 17.9568L27.6444 18.4748L26.4432 19.9879C26.254 20.2263 26.157 20.5248 26.17 20.8288L26.2524 22.7589L24.4423 22.0841C24.2998 22.0309 24.1499 22.0043 24.0002 22.0043C23.8505 22.0043 23.7007 22.0309 23.5582 22.0841L21.748 22.7589L21.8304 20.8288C21.8433 20.5248 21.7464 20.2263 21.5572 19.9879L20.3561 18.4748L22.2169 17.9568Z" fill="#EBEBEB"/>
</svg>
