<svg width="48" height="48" viewBox="0 0 48 48" fill="none" xmlns="http://www.w3.org/2000/svg">
<path d="M41.48 21.7079L31.8151 12.0426C31.5734 11.8009 31.2454 11.665 30.9036 11.665H17.0962C16.7542 11.665 16.4265 11.8009 16.1848 12.0426L6.51954 21.7079C6.03044 22.197 6.01466 22.9852 6.48396 23.4938L23.0524 41.4433C23.2965 41.7075 23.6399 41.8579 23.9998 41.8579C24.3596 41.8579 24.7031 41.7075 24.9471 41.4433L41.5156 23.4938C41.9849 22.9852 41.9691 22.197 41.48 21.7079ZM30.2695 23.9084L23.9998 37.4926L17.73 23.9084H30.2695ZM18.5182 21.3303L23.9998 14.935L29.4813 21.3303H18.5182ZM14.8907 23.9084L19.4061 33.6918L10.3753 23.9084H14.8907ZM33.1088 23.9084H37.6242L28.5934 33.6918L33.1088 23.9084ZM37.4564 21.3303H32.8769L26.8025 14.2434H30.3692L37.4564 21.3303ZM17.63 14.2434H21.1971L15.1224 21.3303H10.5432L17.63 14.2434Z" fill="#EBEBEB"/>
<path d="M14.7154 37.9564C12.528 37.2179 10.7858 35.4767 10.0452 33.2903C9.88477 32.7612 9.39331 32.3765 8.81156 32.3765C8.23249 32.3765 7.74237 32.7585 7.5799 33.2842C6.84137 35.4716 5.10047 37.2139 2.91376 37.9544C2.38504 38.1149 2 38.6063 2 39.1881C2 39.7672 2.38235 40.2573 2.90805 40.4197C5.09543 41.1583 6.83734 42.8988 7.57788 45.0855C7.73834 45.6146 8.2298 45.9996 8.81156 45.9996C9.39063 45.9996 9.88074 45.6173 10.0432 45.0916C10.7817 42.9042 12.523 41.162 14.7094 40.4218C15.2384 40.2613 15.6231 39.7695 15.6231 39.1881C15.6231 38.6087 15.2411 38.1189 14.7154 37.9564ZM8.81156 41.8394C8.10156 40.7991 7.20056 39.8977 6.16025 39.1881C7.20056 38.4781 8.1019 37.5768 8.81156 36.5364C9.52155 37.5768 10.4229 38.4781 11.4632 39.1881C10.4229 39.8981 9.52155 40.7991 8.81156 41.8394Z" fill="#EBEBEB"/>
<path d="M33.2842 10.0436C35.4716 10.7821 37.2138 12.5233 37.9543 14.7097C38.1148 15.2388 38.6063 15.6235 39.188 15.6235C39.7671 15.6235 40.2572 15.2415 40.4197 14.7158C41.1582 12.5284 42.8991 10.7861 45.0858 10.0456C45.6145 9.88513 45.9996 9.39368 45.9996 8.81192C45.9996 8.23285 45.6172 7.74274 45.0915 7.58026C42.9041 6.84174 41.1622 5.10117 40.4217 2.91446C40.2612 2.38541 39.7698 2.00037 39.188 2.00037C38.609 2.00037 38.1188 2.38272 37.9564 2.90842C37.2178 5.0958 35.4766 6.83805 33.2902 7.57825C32.7612 7.73871 32.3765 8.2305 32.3765 8.81192C32.3765 9.39133 32.7585 9.88111 33.2842 10.0436ZM39.188 6.16062C39.898 7.20093 40.799 8.10227 41.8393 8.81192C40.799 9.52191 39.8977 10.4233 39.188 11.4636C38.478 10.4233 37.5767 9.52191 36.5364 8.81192C37.5767 8.10193 38.478 7.20093 39.188 6.16062Z" fill="#EBEBEB"/>
<path d="M45.1185 39.3459C43.5559 38.8252 42.3125 37.5815 41.7918 36.0192C41.6162 35.4928 41.1238 35.1376 40.5689 35.1376C40.014 35.1376 39.5212 35.4928 39.3459 36.0192C38.8253 37.5815 37.5815 38.8252 36.0192 39.3459C35.4929 39.5211 35.1377 40.0139 35.1377 40.5688C35.1377 41.1237 35.4929 41.6162 36.0192 41.7918C37.5815 42.3124 38.8253 43.5562 39.3459 45.1185C39.5212 45.6448 40.014 46 40.5689 46C41.1238 46 41.6162 45.6448 41.7918 45.1185C42.3125 43.5558 43.5562 42.3124 45.1185 41.7918C45.6449 41.6162 46.0001 41.1237 46.0001 40.5688C46.0001 40.0139 45.6449 39.5211 45.1185 39.3459ZM40.5689 42.0089C40.153 41.4692 39.6682 40.9847 39.1284 40.5688C39.6682 40.1529 40.153 39.6682 40.5689 39.1284C40.9845 39.6682 41.4692 40.1529 42.009 40.5688C41.4692 40.9844 40.9845 41.4692 40.5689 42.0089Z" fill="#EBEBEB"/>
<path d="M2.88153 8.65412C4.44418 9.17478 5.68759 10.4185 6.20825 11.9808C6.38382 12.5072 6.87628 12.8624 7.43119 12.8624C7.98609 12.8624 8.47889 12.5072 8.65412 11.9808C9.17478 10.4185 10.4185 9.17478 11.9808 8.65412C12.5075 8.47889 12.8624 7.98609 12.8624 7.43119C12.8624 6.87628 12.5075 6.38382 11.9808 6.20825C10.4185 5.68759 9.17478 4.44385 8.65445 2.88153C8.47889 2.35516 7.98609 2 7.43119 2C6.87628 2 6.38382 2.35516 6.20825 2.88153C5.68759 4.44418 4.44385 5.68759 2.88153 6.20825C2.35516 6.38382 2 6.87628 2 7.43119C2 7.98609 2.35516 8.47889 2.88153 8.65412ZM7.43119 5.99106C7.84711 6.53086 8.33185 7.01526 8.87165 7.43119C8.33185 7.84711 7.84711 8.33185 7.43119 8.87165C7.0156 8.33185 6.53086 7.84711 5.99106 7.43119C6.53086 7.0156 7.0156 6.53086 7.43119 5.99106Z" fill="#EBEBEB"/>
</svg>
