<svg width="48" height="48" viewBox="0 0 48 48" fill="none" xmlns="http://www.w3.org/2000/svg">
<path d="M44.3142 30.6857H37.6874L43.4264 27.3723C43.7217 27.2018 43.9372 26.9209 44.0255 26.5916C44.1137 26.2623 44.0676 25.9113 43.897 25.616L37.7255 14.9268C37.3705 14.3119 36.5843 14.1011 35.9693 14.4563L30.2303 17.7697L33.5437 12.0307C33.7142 11.7354 33.7604 11.3844 33.6722 11.055C33.584 10.7256 33.3686 10.4448 33.0732 10.2743L22.3839 4.10296C21.7689 3.74766 20.9826 3.9586 20.6276 4.57352L17.3142 10.3124V3.68573C17.3142 2.97571 16.7385 2.40002 16.0285 2.40002H3.68561C2.97559 2.40002 2.3999 2.97571 2.3999 3.68573V37.9714C2.3999 40.0708 3.27234 41.97 4.67322 43.3267C6.02971 44.7276 7.929 45.6 10.0285 45.6H44.3142C45.0242 45.6 45.5999 45.0243 45.5999 44.3143V31.9714C45.5999 31.2614 45.0242 30.6857 44.3142 30.6857ZM36.1415 17.326L41.0272 25.7884L32.5446 30.6857H13.0018L36.1415 17.326ZM22.2116 6.97273L30.674 11.8585L25.7765 20.3411L8.85181 30.1125L22.2116 6.97273ZM4.97131 4.97144H14.7428V14.7663L4.97131 31.6909V4.97144ZM43.0285 43.0286H10.0285C7.33449 43.0286 5.14276 40.8369 5.14276 38.1429C5.14276 35.4489 7.33449 33.2571 10.0285 33.2571H43.0285V43.0286Z" fill="#EBEBEB"/>
<path d="M9.8571 36.8572C9.18455 36.8572 8.54026 37.4485 8.5714 38.1429C8.60262 38.8395 9.13637 39.4286 9.8571 39.4286C10.5297 39.4286 11.1739 38.8373 11.1428 38.1429C11.1116 37.4463 10.5778 36.8572 9.8571 36.8572Z" fill="#EBEBEB"/>
</svg>
